<mxfile host="app.diagrams.net" modified="2022-08-25T12:55:03.878Z" agent="5.0 (Macintosh)" etag="r_oJSBoMukBFCh2J1Ect" version="20.2.7" type="github">
  <diagram id="Q2A9HnBOK9R6NAN0WIDu" name="Страница 1">
    <mxGraphModel dx="1183" dy="750" grid="1" gridSize="10" guides="1" tooltips="1" connect="1" arrows="1" fold="1" page="1" pageScale="1" pageWidth="827" pageHeight="1169" math="0" shadow="0">
      <root>
        <mxCell id="0" />
        <mxCell id="1" parent="0" />
        <mxCell id="LMqxVGqI3nDK7u3lpl6m-1" value="&lt;p style=&quot;margin:0px;margin-top:4px;text-align:center;&quot;&gt;&lt;b&gt;SubscriptionsActivityBindModel&lt;/b&gt;&lt;/p&gt;&lt;hr size=&quot;1&quot;&gt;&lt;p style=&quot;margin:0px;margin-left:4px;&quot;&gt;+ qpsConnectedState = State(false)&lt;br&gt;&lt;/p&gt;&lt;hr size=&quot;1&quot;&gt;&lt;p style=&quot;margin:0px;margin-left:4px;&quot;&gt;+ method(): Type&lt;/p&gt;" style="verticalAlign=top;align=left;overflow=fill;fontSize=12;fontFamily=Helvetica;html=1;" vertex="1" parent="1">
          <mxGeometry x="80" y="80" width="200" height="80" as="geometry" />
        </mxCell>
        <mxCell id="LMqxVGqI3nDK7u3lpl6m-2" value="&lt;p style=&quot;margin:0px;margin-top:4px;text-align:center;&quot;&gt;&lt;b&gt;SubscriptionsActivityPresenter&lt;/b&gt;&lt;/p&gt;&lt;hr size=&quot;1&quot;&gt;&lt;p style=&quot;margin:0px;margin-left:4px;&quot;&gt;+ field: Type&lt;/p&gt;&lt;hr size=&quot;1&quot;&gt;&lt;p style=&quot;margin:0px;margin-left:4px;&quot;&gt;+ onFirstLoad() {&lt;/p&gt;&lt;p style=&quot;margin:0px;margin-left:4px;&quot;&gt;getQpsSettings()&lt;/p&gt;&lt;p style=&quot;margin:0px;margin-left:4px;&quot;&gt;&lt;br&gt;&lt;/p&gt;&lt;p style=&quot;margin:0px;margin-left:4px;&quot;&gt;joinFirstAndSecond(&lt;/p&gt;&lt;p style=&quot;margin:0px;margin-left:4px;&quot;&gt;bm.selectSubscriptionAction,&lt;/p&gt;&lt;p style=&quot;margin:0px;margin-left:4px;&quot;&gt;bm.qpsConnectedState&lt;br&gt;&lt;/p&gt;&lt;p style=&quot;margin:0px;margin-left:4px;&quot;&gt;) bindTo ::listenSelectedSubscription&lt;br&gt;&lt;/p&gt;&lt;p style=&quot;margin:0px;margin-left:4px;&quot;&gt;}&lt;/p&gt;&lt;p style=&quot;margin:0px;margin-left:4px;&quot;&gt;&lt;br&gt;&lt;/p&gt;&lt;p style=&quot;margin:0px;margin-left:4px;&quot;&gt;+ getQpsSetting() {&lt;/p&gt;&lt;p style=&quot;margin:0px;margin-left:4px;&quot;&gt;subscribeIoHandleError(&lt;/p&gt;&lt;p style=&quot;margin:0px;margin-left:4px;&quot;&gt;qpsInteractor.getQpsSettings().addLoadingState(this, bm.loadingState)&lt;br&gt;&lt;/p&gt;&lt;p style=&quot;margin:0px;margin-left:4px;&quot;&gt;) { qpsSetting -&amp;gt;&lt;br&gt;&lt;/p&gt;&lt;p style=&quot;margin:0px;margin-left:4px;&quot;&gt;bm.qpsConnectedState.accept(qpsSetting.isQpsConnected)&lt;br&gt;&lt;/p&gt;&lt;p style=&quot;margin:0px;margin-left:4px;&quot;&gt;}&lt;br&gt;&lt;/p&gt;&lt;p style=&quot;margin:0px;margin-left:4px;&quot;&gt;}&lt;/p&gt;&lt;p style=&quot;margin:0px;margin-left:4px;&quot;&gt;&lt;br&gt;&lt;/p&gt;&lt;p style=&quot;margin:0px;margin-left:4px;&quot;&gt;+ listenSelectedSubscription(&lt;/p&gt;&lt;p style=&quot;margin:0px;margin-left:4px;&quot;&gt;subscription: QpsSubscription,&lt;/p&gt;&lt;p style=&quot;margin:0px;margin-left:4px;&quot;&gt;isQpsConnected: Boolean&lt;br&gt;&lt;/p&gt;&lt;p style=&quot;margin:0px;margin-left:4px;&quot;&gt;) {&lt;/p&gt;&lt;p style=&quot;margin:0px;margin-left:4px;&quot;&gt;...&lt;/p&gt;&lt;p style=&quot;margin:0px;margin-left:4px;&quot;&gt;openSubscriptionDetailScreen(subscription, products, isQpsConnected)&lt;br&gt;&lt;/p&gt;&lt;p style=&quot;margin:0px;margin-left:4px;&quot;&gt;}&lt;/p&gt;&lt;p style=&quot;margin:0px;margin-left:4px;&quot;&gt;&lt;br&gt;&lt;/p&gt;&lt;p style=&quot;margin:0px;margin-left:4px;&quot;&gt;+ openSubscriptionDetailScreen(&lt;/p&gt;&lt;p style=&quot;margin:0px;margin-left:4px;&quot;&gt;subscription: QpsSubscription,&lt;/p&gt;&lt;p style=&quot;margin:0px;margin-left:4px;&quot;&gt;products: List&amp;lt;Product&amp;gt;,&lt;/p&gt;&lt;p style=&quot;margin:0px;margin-left:4px;&quot;&gt;isQpsConnected: Boolean&lt;br&gt;&lt;/p&gt;&lt;p style=&quot;margin:0px;margin-left:4px;&quot;&gt;) {&lt;/p&gt;&lt;p style=&quot;margin:0px;margin-left:4px;&quot;&gt;activityNavigator.start(&lt;/p&gt;&lt;p style=&quot;margin:0px;margin-left:4px;&quot;&gt;SubscriptionDetailActivityRoute(&lt;/p&gt;&lt;p style=&quot;margin:0px;margin-left:4px;&quot;&gt;subscription, &lt;br&gt;&lt;/p&gt;&lt;p style=&quot;margin:0px;margin-left:4px;&quot;&gt;products,&lt;/p&gt;&lt;p style=&quot;margin:0px;margin-left:4px;&quot;&gt;isQpsConnected&lt;br&gt;&lt;/p&gt;&lt;p style=&quot;margin:0px;margin-left:4px;&quot;&gt;)&lt;/p&gt;&lt;p style=&quot;margin:0px;margin-left:4px;&quot;&gt;)&lt;br&gt;&lt;/p&gt;&lt;p style=&quot;margin:0px;margin-left:4px;&quot;&gt;}&lt;br&gt;&lt;/p&gt;" style="verticalAlign=top;align=left;overflow=fill;fontSize=12;fontFamily=Helvetica;html=1;" vertex="1" parent="1">
          <mxGeometry x="320" y="80" width="400" height="640" as="geometry" />
        </mxCell>
        <mxCell id="LMqxVGqI3nDK7u3lpl6m-3" value="&lt;p style=&quot;margin:0px;margin-top:4px;text-align:center;&quot;&gt;&lt;b&gt;SubscriptionDetailActivityRoute&lt;/b&gt;&lt;/p&gt;&lt;hr size=&quot;1&quot;&gt;&lt;p style=&quot;margin:0px;margin-left:4px;&quot;&gt;+ isQpsConnected: Boolean&lt;br&gt;&lt;/p&gt;&lt;hr size=&quot;1&quot;&gt;&lt;p style=&quot;margin:0px;margin-left:4px;&quot;&gt;+ method(): Type&lt;/p&gt;" style="verticalAlign=top;align=left;overflow=fill;fontSize=12;fontFamily=Helvetica;html=1;" vertex="1" parent="1">
          <mxGeometry x="760" y="80" width="200" height="80" as="geometry" />
        </mxCell>
        <mxCell id="LMqxVGqI3nDK7u3lpl6m-4" value="&lt;p style=&quot;margin:0px;margin-top:4px;text-align:center;&quot;&gt;&lt;b&gt;ConfirmationPresenter&lt;/b&gt;&lt;/p&gt;&lt;hr size=&quot;1&quot;&gt;&lt;p style=&quot;margin:0px;margin-left:4px;&quot;&gt;+ route: SubscriptionDetailActivityRoute&lt;br&gt;&lt;/p&gt;&lt;hr size=&quot;1&quot;&gt;&lt;p style=&quot;margin:0px;margin-left:4px;&quot;&gt;+ listenScreenChanges() {&lt;/p&gt;&lt;p style=&quot;margin:0px;margin-left:4px;&quot;&gt;bm.saveBtnState.accept(route.isQpsConnected &amp;amp;&amp;amp; hasChanges)&lt;br&gt;&lt;/p&gt;&lt;p style=&quot;margin:0px;margin-left:4px;&quot;&gt;}&lt;br&gt;&lt;/p&gt;" style="verticalAlign=top;align=left;overflow=fill;fontSize=12;fontFamily=Helvetica;html=1;" vertex="1" parent="1">
          <mxGeometry x="1000" y="80" width="360" height="120" as="geometry" />
        </mxCell>
        <mxCell id="LMqxVGqI3nDK7u3lpl6m-5" value="5m" style="shape=umlFrame;whiteSpace=wrap;html=1;" vertex="1" parent="1">
          <mxGeometry x="70" y="40" width="220" height="130" as="geometry" />
        </mxCell>
        <mxCell id="LMqxVGqI3nDK7u3lpl6m-6" value="20m" style="shape=umlFrame;whiteSpace=wrap;html=1;" vertex="1" parent="1">
          <mxGeometry x="310" y="40" width="420" height="690" as="geometry" />
        </mxCell>
        <mxCell id="LMqxVGqI3nDK7u3lpl6m-7" value="10m" style="shape=umlFrame;whiteSpace=wrap;html=1;" vertex="1" parent="1">
          <mxGeometry x="750" y="40" width="220" height="130" as="geometry" />
        </mxCell>
        <mxCell id="LMqxVGqI3nDK7u3lpl6m-8" value="10m" style="shape=umlFrame;whiteSpace=wrap;html=1;" vertex="1" parent="1">
          <mxGeometry x="990" y="40" width="380" height="170" as="geometry" />
        </mxCell>
        <mxCell id="LMqxVGqI3nDK7u3lpl6m-9" value="45m + 1h (отладка) + 1h (ревью) = 2h 45m (2h)" style="shape=umlFrame;whiteSpace=wrap;html=1;width=300;height=30;" vertex="1" parent="1">
          <mxGeometry x="60" width="1320" height="740" as="geometry" />
        </mxCell>
      </root>
    </mxGraphModel>
  </diagram>
</mxfile>
